<svg xmlns="http://www.w3.org/2000/svg" width="1922.404" height="1143" viewBox="0 0 1922.404 1143">
  <g id="Component_21_1" data-name="Component 21 – 1" transform="translate(0 0)">
    <rect id="Rectangle_14" data-name="Rectangle 14" width="1920" height="1080" transform="translate(0 63)" fill="#e6f0f2"/>
    <g id="Component_20_1" data-name="Component 20 – 1" transform="translate(416 704.658)">
      <g id="undraw_welcome_cats_thqn" transform="translate(0 -61)">
        <ellipse id="Ellipse_6" data-name="Ellipse 6" cx="444.538" cy="12.435" rx="444.538" ry="12.435" transform="translate(0 405.077)" fill="#e6e6e6"/>
        <path id="Path_80" data-name="Path 80" d="M836.907,483.742c-.561.008-1.123.015-1.692.015s-1.13-.008-1.692-.015c-29.757-.677-51.326-19.269-45.836-38.777l13.387-47.589,3.383-12.041,59.976,1.023,3.645,11.78L882.428,444.5C888.5,464.119,866.934,483.065,836.907,483.742Z" transform="translate(-155.462 -211.467)" fill="#3f3d56"/>
        <path id="Path_81" data-name="Path 81" d="M868.079,398.137a66.2,66.2,0,0,1-67-.761l3.383-12.041,59.976,1.023Z" transform="translate(-155.462 -213.02)" opacity="0.2"/>
        <path id="Path_82" data-name="Path 82" d="M865.548,446.544c2.591-9.656,11.106-23.585,34.987-40.38,41.648-29.294,16.8-51.259,15.727-52.18-2.258-1.93-1.925-4.1.776-4.839a11.224,11.224,0,0,1,9.034,2.1c1.348,1.115,32.459,27.683-14.537,60.734-42.3,29.75-33.3,49.169-33.2,49.355,1.133,2.077-.684,3.739-4.063,3.716s-7.039-1.723-8.176-3.8C865.856,460.818,863.135,455.533,865.548,446.544Z" transform="translate(-155.462 -213.062)" fill="#3f3d56"/>
        <path id="Path_83" data-name="Path 83" d="M807.534,490.677a6.92,6.92,0,0,1-6.92-6.92V453.769a6.92,6.92,0,1,1,13.841,0v29.988a6.92,6.92,0,0,1-6.92,6.92Z" transform="translate(-155.462 -209.766)" fill="#3f3d56"/>
        <path id="Path_84" data-name="Path 84" d="M813.6,419.484a6.92,6.92,0,0,1-9.179,3.394L777.18,410.344a6.92,6.92,0,0,1,5.785-12.574L810.208,410.3a6.92,6.92,0,0,1,3.394,9.179Z" transform="translate(-155.462 -212.411)" fill="#3f3d56"/>
        <path id="Path_85" data-name="Path 85" d="M856.829,419.484a6.92,6.92,0,0,0,9.179,3.394l27.243-12.534a6.92,6.92,0,1,0-5.785-12.574L860.223,410.3A6.92,6.92,0,0,0,856.829,419.484Z" transform="translate(-155.462 -212.411)" fill="#3f3d56"/>
        <path id="Path_86" data-name="Path 86" d="M862.9,490.677a6.92,6.92,0,0,0,6.92-6.921V453.769a6.92,6.92,0,1,0-13.841,0v29.988a6.92,6.92,0,0,0,6.92,6.92Z" transform="translate(-155.462 -209.766)" fill="#3f3d56"/>
        <path id="Path_87" data-name="Path 87" d="M891.818,296.535a6.806,6.806,0,0,0,1.373-5.408l-3.766-22.157-3.766-22.157a6.913,6.913,0,0,0-11.226-4.164l-17.305,14.34L846.7,265.628a65.694,65.694,0,0,0-21.047-.317l-10.043-8.322-17.305-14.34a6.913,6.913,0,0,0-11.226,4.164l-3.766,22.157-3.766,22.157a6.844,6.844,0,0,0,.3,3.474,66.118,66.118,0,1,0,111.969,1.935Z" transform="translate(-155.462 -220.31)" fill="#3f3d56"/>
        <path id="Path_88" data-name="Path 88" d="M796.572,251.728a3.447,3.447,0,0,0-1.2.218,3.388,3.388,0,0,0-2.184,2.635l-4.568,26.87a3.423,3.423,0,0,0,4.565,3.782l25.553-9.479a3.422,3.422,0,0,0,.993-5.843h0l-20.985-17.39a3.392,3.392,0,0,0-2.172-.792Z" transform="translate(-155.462 -220.31)" fill="#e6e6e6"/>
        <path id="Path_89" data-name="Path 89" d="M876.167,251.728a3.392,3.392,0,0,0-2.172.792L853.009,269.91a3.422,3.422,0,0,0,.993,5.844l25.553,9.479a3.423,3.423,0,0,0,4.565-3.782l-4.567-26.87a3.388,3.388,0,0,0-2.184-2.635A3.448,3.448,0,0,0,876.167,251.728Z" transform="translate(-155.462 -220.31)" fill="#e6e6e6"/>
        <circle id="Ellipse_7" data-name="Ellipse 7" cx="9.227" cy="9.227" r="9.227" transform="translate(670.526 115.275)" fill="#e6e6e6"/>
        <ellipse id="Ellipse_8" data-name="Ellipse 8" cx="6.151" cy="2.307" rx="6.151" ry="2.307" transform="translate(673.602 117.532)" fill="#3f3d56"/>
        <path id="Path_90" data-name="Path 90" d="M675.14,125.04H683.6v10.381a4.229,4.229,0,0,1-4.229,4.229h0a4.229,4.229,0,0,1-4.229-4.229V125.04Z" transform="translate(0 5.438)" fill="#ff6584"/>
        <path id="Path_91" data-name="Path 91" d="M835.729,240.69c-.443.92-.874,1.849-1.279,2.8a65.818,65.818,0,0,0-4.651,35.344c.866-1.256,1.776-2.565,2.7-3.888a65.775,65.775,0,0,1,3.229-34.254Z" transform="translate(-155.462 -220.31)" fill="#3f3d56"/>
        <path id="Path_92" data-name="Path 92" d="M842.649,249.148c-.443.92-.874,1.849-1.279,2.8a65.819,65.819,0,0,0-4.651,35.344c.866-1.256,1.776-2.565,2.7-3.888a65.776,65.776,0,0,1,3.229-34.254Z" transform="translate(-155.462 -220.31)" fill="#3f3d56"/>
        <path id="Path_93" data-name="Path 93" d="M863.985,415.2l-.975-12.4-.975-12.4a3.825,3.825,0,0,0-5.98-2.853l-10.25,7.043-7.485,5.143a5.1,5.1,0,0,0-7.749,0l-7.485-5.143-10.249-7.043a3.825,3.825,0,0,0-5.98,2.853l-.975,12.4-.975,12.4a3.825,3.825,0,0,0,5.461,3.752l11.224-5.355,9.223-4.4a5.1,5.1,0,0,0,7.262,0l9.223,4.4,11.224,5.355a3.825,3.825,0,0,0,5.46-3.752Z" transform="translate(-155.462 -212.764)" fill="#6c63ff"/>
        <circle id="Ellipse_9" data-name="Ellipse 9" cx="2.307" cy="2.307" r="2.307" transform="translate(665.144 111.921)" fill="#e6e6e6"/>
        <circle id="Ellipse_10" data-name="Ellipse 10" cx="2.307" cy="2.307" r="2.307" transform="translate(689.749 111.921)" fill="#e6e6e6"/>
        <path id="Path_94" data-name="Path 94" d="M388.888,463.362c.561.008,1.123.015,1.692.015s1.13-.008,1.692-.015c29.757-.677,51.326-19.269,45.836-38.777L424.72,377l-3.384-12.041-59.976,1.023-3.645,11.78-14.348,46.366C337.293,443.739,358.861,462.685,388.888,463.362Z" transform="translate(-155.462 -212.559)" fill="#3f3d56"/>
        <path id="Path_95" data-name="Path 95" d="M357.715,377.758a66.2,66.2,0,0,0,67-.761l-3.383-12.042-59.976,1.023Z" transform="translate(-155.462 -213.92)" opacity="0.2"/>
        <path id="Path_96" data-name="Path 96" d="M352.962,420.524c-6.473-7.619-20.13-16.565-48.9-21.526-50.177-8.656-37.121-39.139-36.542-40.432,1.215-2.711-.014-4.527-2.771-4.041a11.224,11.224,0,0,0-7.266,5.766c-.741,1.585-17.492,38.91,39.127,48.673,50.957,8.79,51.139,30.19,51.125,30.4-.136,2.362,2.218,3.087,5.263,1.62s5.625-4.569,5.765-6.931C358.791,433.557,358.99,427.616,352.962,420.524Z" transform="translate(-155.462 -213.337)" fill="#3f3d56"/>
        <path id="Path_97" data-name="Path 97" d="M418.261,470.3a6.92,6.92,0,0,0,6.92-6.92V433.389a6.92,6.92,0,0,0-13.841,0v29.988a6.92,6.92,0,0,0,6.921,6.921Z" transform="translate(-155.462 -210.714)" fill="#3f3d56"/>
        <path id="Path_98" data-name="Path 98" d="M412.193,399.105a6.92,6.92,0,0,0,9.179,3.394l27.243-12.534a6.92,6.92,0,1,0-5.785-12.574l-27.243,12.534A6.92,6.92,0,0,0,412.193,399.105Z" transform="translate(-155.462 -213.322)" fill="#3f3d56"/>
        <path id="Path_99" data-name="Path 99" d="M368.966,399.105a6.92,6.92,0,0,1-9.179,3.394l-27.243-12.534a6.92,6.92,0,1,1,5.785-12.574l27.243,12.534a6.92,6.92,0,0,1,3.394,9.179Z" transform="translate(-155.462 -213.322)" fill="#3f3d56"/>
        <path id="Path_100" data-name="Path 100" d="M362.9,470.3a6.92,6.92,0,0,1-6.92-6.92V433.389a6.92,6.92,0,1,1,13.841,0v29.988A6.92,6.92,0,0,1,362.9,470.3Z" transform="translate(-155.462 -210.714)" fill="#3f3d56"/>
        <path id="Path_101" data-name="Path 101" d="M445.947,274.221a6.844,6.844,0,0,0,.3-3.474l-3.766-22.157-3.766-22.157a6.913,6.913,0,0,0-11.226-4.164l-17.305,14.34-10.043,8.322a65.693,65.693,0,0,0-21.047.317l-10.426-8.639-17.305-14.34a6.913,6.913,0,0,0-11.226,4.164L336.37,248.59,332.6,270.747a6.806,6.806,0,0,0,1.374,5.408,66.137,66.137,0,1,0,111.969-1.935Z" transform="translate(-155.462 -220.31)" fill="#3f3d56"/>
        <path id="Path_102" data-name="Path 102" d="M427.051,232.14l-20.985,17.39h0a3.422,3.422,0,0,0,.993,5.844l25.553,9.479a3.423,3.423,0,0,0,4.565-3.782L432.61,234.2a3.388,3.388,0,0,0-2.184-2.635,3.446,3.446,0,0,0-1.2-.218A3.392,3.392,0,0,0,427.051,232.14Z" transform="translate(-155.462 -220.31)" fill="#e6e6e6"/>
        <path id="Path_103" data-name="Path 103" d="M348.427,231.566a3.388,3.388,0,0,0-2.184,2.635l-4.567,26.87a3.423,3.423,0,0,0,4.565,3.782l25.553-9.479a3.422,3.422,0,0,0,.993-5.844L351.8,232.14a3.392,3.392,0,0,0-2.172-.792A3.447,3.447,0,0,0,348.427,231.566Z" transform="translate(-155.462 -220.31)" fill="#e6e6e6"/>
        <circle id="Ellipse_11" data-name="Ellipse 11" cx="9.227" cy="9.227" r="9.227" transform="translate(225.89 94.002)" fill="#e6e6e6"/>
        <ellipse id="Ellipse_12" data-name="Ellipse 12" cx="6.151" cy="2.307" rx="6.151" ry="2.307" transform="translate(228.966 96.286)" fill="#3f3d56"/>
        <path id="Path_104" data-name="Path 104" d="M4.229,0h0A4.229,4.229,0,0,1,8.458,4.229V14.609H0V4.229A4.229,4.229,0,0,1,4.229,0Z" transform="translate(239.73 123.822) rotate(180)" fill="#ff6584"/>
        <path id="Path_105" data-name="Path 105" d="M390.066,220.31c.444.92.874,1.849,1.279,2.8A65.818,65.818,0,0,1,396,258.452c-.866-1.256-1.776-2.565-2.7-3.888A65.775,65.775,0,0,0,390.066,220.31Z" transform="translate(-155.462 -220.31)" fill="#3f3d56"/>
        <path id="Path_106" data-name="Path 106" d="M383.146,228.768c.444.92.874,1.849,1.279,2.8a65.818,65.818,0,0,1,4.651,35.344c-.866-1.256-1.776-2.565-2.7-3.888a65.775,65.775,0,0,0-3.229-34.254Z" transform="translate(-155.462 -220.31)" fill="#3f3d56"/>
        <path id="Path_107" data-name="Path 107" d="M361.81,260.258l.975-12.4.975-12.4a3.825,3.825,0,0,1,5.98-2.853l10.25,7.043,7.485,5.143a5.1,5.1,0,0,1,7.749,0l7.485-5.143,10.25-7.043a3.825,3.825,0,0,1,5.98,2.853l.975,12.4.975,12.4a3.825,3.825,0,0,1-5.461,3.752L404.2,258.655l-9.223-4.4a5.1,5.1,0,0,1-7.262,0l-9.223,4.4L367.27,264.01a3.825,3.825,0,0,1-5.46-3.752Z" transform="translate(-155.462 -220.31)" fill="#6c63ff"/>
        <path id="Path_108" data-name="Path 108" d="M400.575,309.592c0,1.274,1.033,0,2.307,0s2.307,1.274,2.307,0a2.307,2.307,0,1,0-4.614,0Z" transform="translate(-155.462 -220.31)" fill="#e6e6e6"/>
        <path id="Path_109" data-name="Path 109" d="M380.583,309.592c0,1.274-1.033,0-2.307,0s-2.307,1.274-2.307,0a2.307,2.307,0,0,1,4.614,0Z" transform="translate(-155.462 -220.31)" fill="#e6e6e6"/>
        <path id="Path_110" data-name="Path 110" d="M481.05,263.451V248.788H407.736V396.333H481.05V381.67H422.4V263.451Z" transform="translate(0 19.342)" fill="#3f3d56"/>
        <path id="Path_111" data-name="Path 111" d="M672.253,469.1V616.643h73.314V469.1ZM730.9,601.981H686.916V483.761H730.9Z" transform="translate(-155.462 -200.968)" fill="#6c63ff"/>
        <path id="Path_112" data-name="Path 112" d="M313.344,381.67V249.705H298.681V396.333h73.314V381.67Z" transform="translate(0 19.342)" fill="#6c63ff"/>
        <path id="Path_113" data-name="Path 113" d="M265.69,263.451V248.788H192.376V396.333H265.69V381.67H207.039V329.434H265.69V314.771H207.039v-51.32Z" transform="translate(0 19.342)" fill="#3f3d56"/>
        <path id="Path_114" data-name="Path 114" d="M839.372,263.451V248.788H766.058V396.333h73.314V381.67H780.721V329.434h58.651V314.771H780.721v-51.32Z" transform="translate(0 19.342)" fill="#6c63ff"/>
        <path id="Path_115" data-name="Path 115" d="M142.889,249.705V370.89l-38.661-38.66-.088.089-.082-.082L64.535,371.76V249.247H49.872V395.875H64.535V392.5l39.612-39.612,38.742,38.743v4.706h14.663V249.705Z" transform="translate(0 19.342)" fill="#3f3d56"/>
        <path id="Path_116" data-name="Path 116" d="M717.488,249.705v3.378L677.876,292.7l-38.743-38.742v-4.706H624.47V395.875h14.663V274.689l38.661,38.661.089-.089.081.081,39.524-39.523V396.333H732.15V249.705Z" transform="translate(0 19.342)" fill="#3f3d56"/>
        <circle id="Ellipse_13" data-name="Ellipse 13" cx="9" cy="9" r="9" transform="translate(326.076 147.576)" fill="#6c63ff"/>
        <circle id="Ellipse_14" data-name="Ellipse 14" cx="9" cy="9" r="9" transform="translate(104.076 251.958)" fill="#6c63ff"/>
        <circle id="Ellipse_15" data-name="Ellipse 15" cx="9" cy="9" r="9" transform="translate(282.076 460.722)" fill="#6c63ff"/>
        <circle id="Ellipse_16" data-name="Ellipse 16" cx="9" cy="9" r="9" transform="translate(508.076 175.759)" fill="#6c63ff"/>
        <circle id="Ellipse_17" data-name="Ellipse 17" cx="9" cy="9" r="9" transform="translate(773.076 452.722)" fill="#6c63ff"/>
        <circle id="Ellipse_18" data-name="Ellipse 18" cx="9" cy="9" r="9" transform="translate(782.076 206.03)" fill="#6c63ff"/>
        <circle id="Ellipse_19" data-name="Ellipse 19" cx="9" cy="9" r="9" transform="translate(668.076 375.129)" fill="#6c63ff"/>
      </g>
    </g>
    <g id="undraw_happy_feeling_slmw" transform="translate(1179 0)">
      <path id="Path_117" data-name="Path 117" d="M884.023,360.161C842.4,196.475,698.563,78.317,529.733,73.577c-89.255-2.505-183.177,27.1-251.558,130.685C155.935,389.437,285.687,517.4,376.146,578.2A566.029,566.029,0,0,1,493.141,683.359c61.1,72.508,178.649,162.609,318.643,21.434C913.251,602.469,911.751,469.192,884.023,360.161Z" transform="translate(-228.298 -73.433)" fill="#f2f2f2"/>
      <path id="Path_118" data-name="Path 118" d="M955.209,737.064c0,32.262-151.723,89.5-338.882,89.5s-321.118-116-321.118-148.261,133.959,31.429,321.118,31.429S955.209,704.8,955.209,737.064Z" transform="translate(-228.298 -73.433)" fill="#3f3d56"/>
      <path id="Path_119" data-name="Path 119" d="M955.209,737.064c0,32.262-151.723,89.5-338.882,89.5s-321.118-116-321.118-148.261,133.959,31.429,321.118,31.429S955.209,704.8,955.209,737.064Z" transform="translate(-228.298 -73.433)" opacity="0.1"/>
      <path id="Path_120" data-name="Path 120" d="M955.209,736.722c0,32.262-151.723,58.416-338.882,58.416s-321.118-84.57-321.118-116.832,133.959,0,321.118,0S955.209,704.46,955.209,736.722Z" transform="translate(-228.298 -73.433)" fill="#3f3d56"/>
      <g id="Group_1" data-name="Group 1" opacity="0.7">
        <path id="Path_121" data-name="Path 121" d="M943.991,249.266c-12.292,23.858-51.251,51.972-75.11,39.68s-23.581-60.335-11.289-84.193a48.6,48.6,0,1,1,86.4,44.513Z" transform="translate(-228.298 -73.433)" fill="#6c63ff"/>
        <path id="Path_122" data-name="Path 122" d="M870.9,295.255a8.05,8.05,0,0,0-8.328-4.29l4.29-8.328,8.328,4.29Z" transform="translate(-228.298 -73.433)" fill="#6c63ff"/>
        <path id="Path_123" data-name="Path 123" d="M864.83,286.635a10.3,10.3,0,0,0,8.36,4.264" transform="translate(-228.298 -73.433)" fill="none" stroke="#2f2e41" stroke-miterlimit="10" stroke-width="2"/>
        <ellipse id="Ellipse_20" data-name="Ellipse 20" cx="12.295" cy="10.246" rx="12.295" ry="10.246" transform="translate(685.099 150.853) rotate(-62.742)" fill="#fff" opacity="0.4"/>
        <line id="Line_1" data-name="Line 1" x1="36.255" y2="91.233" transform="translate(604.105 215.811)" fill="none" stroke="#2f2e41" stroke-miterlimit="10" stroke-width="2"/>
      </g>
      <path id="Path_124" data-name="Path 124" d="M951.644,395.618c-26.912,27.15-91.872,48.665-119.022,21.753s-6.208-92.059,20.7-119.209a69.217,69.217,0,1,1,98.318,97.456Z" transform="translate(-228.298 -73.433)" fill="#ff6584"/>
      <path id="Path_125" data-name="Path 125" d="M832.664,426.806a11.467,11.467,0,0,0-9.477-9.393l9.393-9.476,9.476,9.393Z" transform="translate(-228.298 -73.433)" fill="#ff6584"/>
      <path id="Path_126" data-name="Path 126" d="M828.108,412.5a14.677,14.677,0,0,0,9.532,9.371" transform="translate(-228.298 -73.433)" fill="none" stroke="#2f2e41" stroke-miterlimit="10" stroke-width="2"/>
      <line id="Line_2" data-name="Line 2" x1="89.236" y2="90.025" transform="translate(513.28 346.228)" fill="none" stroke="#2f2e41" stroke-miterlimit="10" stroke-width="2"/>
      <ellipse id="Ellipse_21" data-name="Ellipse 21" cx="17.513" cy="14.594" rx="17.513" ry="14.594" transform="translate(692.477 275.152) rotate(-45.252)" fill="#fff" opacity="0.4"/>
      <path id="Path_127" data-name="Path 127" d="M867.53,307.663c-8.868,37.185-53.165,89.343-90.35,80.475S724,312.734,732.872,275.549A69.217,69.217,0,0,1,867.53,307.663Z" transform="translate(-228.298 -73.433)" fill="#6c63ff"/>
      <path id="Path_128" data-name="Path 128" d="M782.122,396.176a11.466,11.466,0,0,0-12.979-3.1l3.1-12.979,12.979,3.1Z" transform="translate(-228.298 -73.433)" fill="#6c63ff"/>
      <path id="Path_129" data-name="Path 129" d="M770.79,386.324a14.677,14.677,0,0,0,13.015,3.047" transform="translate(-228.298 -73.433)" fill="none" stroke="#2f2e41" stroke-miterlimit="10" stroke-width="2"/>
      <ellipse id="Ellipse_22" data-name="Ellipse 22" cx="17.513" cy="14.594" rx="17.513" ry="14.594" transform="translate(588.405 210.108) rotate(-76.586)" fill="#fff" opacity="0.4"/>
      <line id="Line_3" data-name="Line 3" x1="29.405" y2="123.3" transform="translate(519.271 317.585)" fill="none" stroke="#2f2e41" stroke-miterlimit="10" stroke-width="2"/>
      <g id="Group_2" data-name="Group 2" opacity="0.8">
        <path id="Path_130" data-name="Path 130" d="M455.362,633.711c-19.33,18.81-65.43,33.161-84.24,13.831s-3.207-65.021,16.123-83.831a48.837,48.837,0,0,1,68.117,70Z" transform="translate(-228.298 -73.433)" fill="#6c63ff"/>
        <path id="Path_131" data-name="Path 131" d="M371.031,654.2a8.09,8.09,0,0,0-6.566-6.747l6.747-6.565,6.566,6.747Z" transform="translate(-228.298 -73.433)" fill="#6c63ff"/>
        <path id="Path_132" data-name="Path 132" d="M368,644.047a10.356,10.356,0,0,0,6.6,6.732" transform="translate(-228.298 -73.433)" fill="none" stroke="#2f2e41" stroke-miterlimit="10" stroke-width="2"/>
        <ellipse id="Ellipse_23" data-name="Ellipse 23" cx="12.356" cy="10.297" rx="12.356" ry="10.297" transform="matrix(0.717, -0.697, 0.697, 0.717, 205.885, 526.699)" fill="#fff" opacity="0.4"/>
      </g>
      <path id="Path_133" data-name="Path 133" d="M436.859,163.886h13.58a33.592,33.592,0,0,1,33.592,33.592v47.173H403.266V197.478a33.592,33.592,0,0,1,33.593-33.592Z" fill="#2f2e41"/>
      <path id="Path_134" data-name="Path 134" d="M626.609,447.616l-10.192,21.43s-8.308,28.788,1.106,31.865,11.251-29.542,11.251-29.542l7.8-21.6Z" transform="translate(-228.298 -73.433)" fill="#ffb9b9"/>
      <path id="Path_135" data-name="Path 135" d="M626.609,447.616l-10.192,21.43s-8.308,28.788,1.106,31.865,11.251-29.542,11.251-29.542l7.8-21.6Z" transform="translate(-228.298 -73.433)" opacity="0.1"/>
      <path id="Path_136" data-name="Path 136" d="M400.242,340.643,387.351,385.76,407.762,396.5V342.791Z" fill="#575a89"/>
      <path id="Path_137" data-name="Path 137" d="M663.452,294.3s-1.074,17.188-3.223,17.188-6.445,20.41-6.445,20.41l18.262,11.816L694.6,323.3l-6.445-16.114s-3.223-6.445-2.148-12.891S663.452,294.3,663.452,294.3Z" transform="translate(-228.298 -73.433)" fill="#ffb9b9"/>
      <path id="Path_138" data-name="Path 138" d="M663.452,294.3s-1.074,17.188-3.223,17.188-6.445,20.41-6.445,20.41l18.262,11.816L694.6,323.3l-6.445-16.114s-3.223-6.445-2.148-12.891S663.452,294.3,663.452,294.3Z" transform="translate(-228.298 -73.433)" opacity="0.1"/>
      <path id="Path_139" data-name="Path 139" d="M731.128,465.1l2.148,23.633s7.52,29,17.188,26.856-5.371-31.152-5.371-31.152l-4.3-22.559Z" transform="translate(-228.298 -73.433)" fill="#ffb9b9"/>
      <path id="Path_140" data-name="Path 140" d="M684.936,698.207s6.445,39.746,2.148,47.266,4.3,8.594,4.3,8.594l25.782-6.445V735.8s-8.594-38.672-8.594-40.82S684.936,698.207,684.936,698.207Z" transform="translate(-228.298 -73.433)" fill="#ffb9b9"/>
      <path id="Path_141" data-name="Path 141" d="M632.3,519.887s7.52,77.344,19.336,102.051,22.559,92.383,27.93,93.457,46.191-6.445,51.563-10.742S694.6,596.157,694.6,595.083s-9.668-96.68-9.668-96.68l-12.891-21.484Z" transform="translate(-228.298 -73.433)" fill="#2f2e41"/>
      <path id="Path_142" data-name="Path 142" d="M632.3,519.887s7.52,77.344,19.336,102.051,22.559,92.383,27.93,93.457,46.191-6.445,51.563-10.742S694.6,596.157,694.6,595.083s-9.668-96.68-9.668-96.68l-12.891-21.484Z" transform="translate(-228.298 -73.433)" opacity="0.1"/>
      <path id="Path_143" data-name="Path 143" d="M694.6,743.324s-10.742-5.371-12.891-2.148l-8.593,12.89S636.6,771.253,649.487,773.4s37.6,2.148,40.82,0,38.672-21.484,37.6-22.559-9.668-23.633-10.742-21.484S701.05,747.621,694.6,743.324Z" transform="translate(-228.298 -73.433)" fill="#2f2e41"/>
      <path id="Path_144" data-name="Path 144" d="M514.136,652.015S489.429,669.2,477.613,665.98s0,23.633,0,23.633L499.1,701.429l6.445-5.371s22.559-30.078,32.227-31.152S514.136,652.015,514.136,652.015Z" transform="translate(-228.298 -73.433)" fill="#ffb9b9"/>
      <path id="Path_145" data-name="Path 145" d="M625.854,455.433l4.3,22.559L549.585,600.453s-48.34,48.34-44.043,53.711,31.152,36.523,37.6,32.227S698.9,520.961,697.827,499.476s-36.523-62.3-36.523-62.3l-35.449,16.113Z" transform="translate(-228.298 -73.433)" fill="#2f2e41"/>
      <path id="Path_146" data-name="Path 146" d="M482.983,673.5s9.668-10.742,4.3-11.816a160.389,160.389,0,0,0-18.262-2.148c-2.148,0-31.152-15.039-33.3-9.668s12.891,33.3,21.484,36.523,39.746,25.781,39.746,25.781,16.113-13.965,13.965-17.187S478.686,685.316,482.983,673.5Z" transform="translate(-228.298 -73.433)" fill="#2f2e41"/>
      <circle id="Ellipse_24" data-name="Ellipse 24" cx="25.781" cy="25.781" r="25.781" transform="translate(417.967 180.047)" fill="#ffb9b9"/>
      <path id="Path_147" data-name="Path 147" d="M677.417,317.933s-18.262,1.074-23.633-2.148S636.6,359.828,636.6,359.828l-7.52,62.305s-1.074,7.52,0,11.816-10.742-2.148-6.445,9.668-3.223,17.188,4.3,18.262,47.266-15.039,47.266-15.039l18.262-95.605,5.371-38.672Z" transform="translate(-228.298 -73.433)" fill="#d0cde1"/>
      <path id="Path_148" data-name="Path 148" d="M661.531,309.207s-9.9-2.016-13.119.133S633.373,327.6,633.373,331.9s-4.3,51.563-4.3,55.859-3.223,26.855-3.223,29,2.755,11.382,2.755,11.382l6.913-12.457s-2.148-16.113,5.371-41.895S661.531,309.207,661.531,309.207Z" transform="translate(-228.298 -73.433)" fill="#575a89"/>
      <path id="Path_149" data-name="Path 149" d="M672.046,325.453s14.351-22.559,15.232-20.41,16.995,5.371,16.995,5.371,29,20.41,26.856,29-17.187,73.047-17.187,73.047-13.965,33.3-3.223,56.934-2.148,32.227-2.148,32.227-8.594,4.3-6.445,8.594-24.707,20.41-27.93,8.594-42.969-82.715-34.375-108.5S672.046,325.453,672.046,325.453Z" transform="translate(-228.298 -73.433)" fill="#575a89"/>
      <path id="Path_150" data-name="Path 150" d="M725.757,336.2s11.816,22.559,9.668,25.781,7.52,22.559,7.52,22.559a7.44,7.44,0,0,0,0,5.371c1.074,3.223,7.52,17.188,7.52,22.559s-1.074,22.559,0,30.078,15.039,25.781,3.223,26.855-31.152,10.742-30.078,0,4.3-36.523,0-40.82-7.52-4.3-5.371-9.668-9.668-19.336-9.668-19.336Z" transform="translate(-228.298 -73.433)" fill="#575a89"/>
      <path id="Path_151" data-name="Path 151" d="M465.29,199.477H424.514l-9.233-21.218h56.934Z" fill="#2f2e41"/>
      <ellipse id="Ellipse_25" data-name="Ellipse 25" cx="2.053" cy="5.476" rx="2.053" ry="5.476" transform="translate(414.145 205.058) rotate(-16.16)" fill="#ffb9b9"/>
      <ellipse id="Ellipse_26" data-name="Ellipse 26" cx="5.476" cy="2.053" rx="5.476" ry="2.053" transform="translate(465.476 214.429) rotate(-73.84)" fill="#ffb9b9"/>
      <path id="Path_152" data-name="Path 152" d="M940.209,692.412c0,24.952-14.832,33.664-33.13,33.664-.425,0-.851-.006-1.27-.011q-1.276-.035-2.517-.121c-16.516-1.167-29.343-10.327-29.343-33.532,0-24.01,30.676-54.307,32.992-56.56l0,0a.005.005,0,0,0,0,0c.086-.08.132-.126.132-.126S940.209,667.46,940.209,692.412Z" transform="translate(-228.298 -73.433)" fill="#f2f2f2"/>
      <path id="Path_153" data-name="Path 153" d="M905.872,722.26l12.114-16.93-12.143,18.786-.035,1.948q-1.276-.035-2.517-.121l1.3-24.958-.012-.2.023-.034.126-2.362-12.177-18.832,12.212,17.062.029.506.988-18.861L895.361,658.8l10.551,16.148,1.029-39.1.006-.132v.126l-.172,30.837,10.379-12.223-10.425,14.878-.27,16.89,9.689-16.206-9.729,18.688-.155,9.39,14.068-22.556-14.12,25.832Z" transform="translate(-228.298 -73.433)" fill="#3f3d56"/>
    </g>
  </g>
</svg>
